#!OML:ASF E:\emotionWalksFemale\Project 1\Capture day 1\Session 1\Female1.ASF
:FULLY-SPECIFIED
:DEGREES
33
root 8.83851 15.4024 23.823 178.702 3.79106 -178.661
lowerback 9.4129 2.04334 0.663269
upperback -3.61717 2.84311 -0.123636
thorax -9.10009 1.34572 -0.992068
lowerneck -4.64508 -5.20281 -10.1779
upperneck 13.7415 -7.947 9.08175
head 5.65352 -4.06494 3.97815
rclavicle 1.29086e-014 1.19271e-015
rhumerus -46.4874 8.69962 -93.8004
rradius 46.6102
rwrist 10.7992
rhand -0.205725 -43.651
rfingers 7.12502
rthumb 25.3933 -71.9799
lclavicle 1.29086e-014 1.19271e-015
lhumerus -45.584 -1.71944 84.6765
lradius 38.6877
lwrist -8.3297
lhand -3.19605 -31.5992
lfingers 7.12502
lthumb 22.5258 -2.89312
rfemur -4.98625 9.07562 26.0917
rtibia 22.8533
rfoot -15.467 -22.5653
rtoes -1.62855
lfemur -8.83131 -13.6902 -21.1618
ltibia 28.9965
lfoot -21.9878 14.6636
ltoes -38.1416
34
root 8.83701 15.386 23.8335 178.694 4.04191 -178.632
lowerback 9.69108 1.99123 0.706679
upperback -3.63587 2.7861 -0.0574922
thorax -9.28616 1.31464 -0.948657
lowerneck -4.65774 -5.25637 -10.2883
upperneck 13.6671 -7.96567 8.9196
head 5.63359 -4.08319 3.9427
rclavicle 1.29707e-014 -1.19271e-015
rhumerus -46.541 9.34379 -94.2041
rradius 47.1256
rwrist 10.8325
rhand -0.506042 -43.4308
rfingers 7.12502
rthumb 25.1056 -71.8003
lclavicle 1.29707e-014 -1.19271e-015
lhumerus -45.5896 -1.35503 84.829
lradius 38.6
lwrist -8.95912
lhand -2.96631 -31.8393
lfingers 7.12502
lthumb 22.7463 -3.16015
rfemur -5.42849 8.82267 26.0825
rtibia 23.5697
rfoot -15.7879 -22.21
rtoes -1.77027
lfemur -9.23066 -13.1736 -21.0583
ltibia 29.6717
lfoot -22.4051 14.1766
ltoes -37.0583
35
root 8.83636 15.368 23.8426 178.697 4.33868 -178.691
lowerback 9.89373 1.98889 0.650657
upperback -3.64517 2.77697 -0.0477142
thorax -9.41877 1.31154 -0.913973
lowerneck -4.59335 -5.28499 -10.2042
upperneck 13.4672 -7.95795 8.72159
head 5.5495 -4.08164 3.86886
rclavicle 2.09345e-014 4.77083e-015
rhumerus -46.529 9.93594 -94.6352
rradius 47.517
rwrist 10.7998
rhand -0.882824 -43.3393
rfingers 7.12502
rthumb 24.7445 -71.7588
lclavicle 2.09345e-014 4.77083e-015
lhumerus -45.3869 -0.757357 84.7935
lradius 38.2602
lwrist -9.82759
lhand -2.5429 -32.3652
lfingers 7.12502
lthumb 23.1526 -3.73651
rfemur -5.88033 8.70936 25.9986
rtibia 24.3018
rfoot -16.021 -21.9584
rtoes -2.25664
lfemur -9.60399 -12.6339 -21.0799
ltibia 30.3304
lfoot -22.7034 14.0012
ltoes -36.5528
36
root 8.83446 15.3493 23.8473 178.739 4.4888 -178.674
lowerback 9.91837 1.95854 0.706286
upperback -3.6398 2.74396 -0.0449249
thorax -9.4254 1.29209 -0.937189
lowerneck -4.38888 -5.26179 -10.0453
upperneck 13.1324 -7.90529 8.62357
head 5.39581 -4.05268 3.8229
rclavicle -7.35503e-015 -3.37934e-015
rhumerus -46.5031 10.4513 -95.0689
rradius 47.8756
rwrist 10.6628
rhand -1.24563 -43.4962
rfingers 7.12502
rthumb 24.3968 -71.963
lclavicle -7.35503e-015 -3.37934e-015
lhumerus -45.1845 -0.372317 84.8563
lradius 37.9262
lwrist -10.449
lhand -2.82819 -32.4765
lfingers 7.12502
lthumb 22.8788 -3.81366
rfemur -6.34627 8.6151 25.9982
rtibia 25.0526
rfoot -16.272 -21.7982
rtoes -2.24285
lfemur -9.97538 -12.327 -21.0262
ltibia 30.9659
lfoot -23.0763 13.8021
ltoes -35.7566
37
root 8.83335 15.3275 23.8557 178.728 4.92028 -178.602
lowerback 10.0375 2.00931 0.799974
upperback -3.59629 2.8271 -0.00556375
thorax -9.44393 1.32687 -0.966284
lowerneck -4.36265 -5.18884 -9.93224
upperneck 12.9575 -7.78067 8.54385
head 5.31786 -3.98666 3.7906
rclavicle 4.72114e-015 3.18055e-015
rhumerus -46.4264 10.8968 -95.4146
rradius 48.2149
rwrist 10.7875
rhand -1.52223 -43.5747
rfingers 7.12502
rthumb 24.1316 -72.077
lclavicle 4.72114e-015 3.18055e-015
lhumerus -44.9237 0.14602 84.8895
lradius 37.5567
lwrist -11.0853
lhand -3.31076 -32.6676
lfingers 7.12502
lthumb 22.4157 -3.94822
rfemur -6.81184 8.58942 26.0523
rtibia 25.8187
rfoot -16.4359 -21.4797
rtoes -2.65613
lfemur -10.2867 -11.6715 -20.9403
ltibia 31.6077
lfoot -23.1933 14.0587
ltoes -37.4808
38
root 8.8325 15.3109 23.8669 178.806 5.1948 -178.558
lowerback 10.112 2.02806 0.888399
upperback -3.56771 2.86574 0.0165046
thorax -9.45256 1.34036 -1.00158
lowerneck -4.39596 -5.10982 -9.93328
upperneck 12.8083 -7.65218 8.59282
head 5.26699 -3.91544 3.81619
rclavicle -2.12575e-014 -2.78299e-015
rhumerus -46.3162 11.4495 -95.7921
rradius 48.4897
rwrist 11.0223
rhand -1.86325 -43.6896
rfingers 7.12502
rthumb 23.8046 -72.2348
lclavicle -2.12575e-014 -2.78299e-015
lhumerus -44.5422 0.86773 84.8022
lradius 37.0408
lwrist -11.9555
lhand -3.47054 -33.0497
lfingers 7.12502
lthumb 22.2623 -4.31201
rfemur -7.37536 8.37972 26.0585
rtibia 26.587
rfoot -16.5569 -21.1932
rtoes -3.68579
lfemur -10.7535 -11.1078 -20.8559
ltibia 32.2802
lfoot -23.2842 14.2333
ltoes -39.3878
39
root 8.8318 15.2922 23.8799 178.849 5.19895 -178.497
lowerback 10.2639 1.95876 1.02956
upperback -3.54482 2.79282 0.0179351
thorax -9.51144 1.29515 -1.0718
lowerneck -4.38028 -5.02953 -9.94306
upperneck 12.6359 -7.5309 8.67842
head 5.20286 -3.84803 3.85544
rclavicle 8.10048e-015 3.18055e-015
rhumerus -46.2152 12.1593 -96.297
rradius 48.6685
rwrist 11.1186
rhand -2.39409 -44.2495
rfingers 7.12502
rthumb 23.2954 -72.8601
lclavicle 8.10048e-015 3.18055e-015
lhumerus -44.2243 1.24322 84.846
lradius 36.7077
lwrist -12.3593
lhand -3.546 -33.0213
lfingers 7.12502
lthumb 22.1899 -4.2749
rfemur -7.89762 8.11035 26.1094
rtibia 27.4094
rfoot -16.8368 -21.0526
rtoes -4.19201
lfemur -11.2097 -10.8297 -20.7292
ltibia 32.9695
lfoot -23.5554 13.8506
ltoes -39.3865
40
root 8.8312 15.2687 23.8902 178.772 5.01966 -178.497
lowerback 10.4896 1.8261 1.14307
upperback -3.4821 2.62781 -0.00970063
thorax -9.57232 1.20547 -1.14228
lowerneck -4.44695 -4.9291 -9.8144
upperneck 12.5898 -7.38159 8.6271
head 5.17885 -3.76805 3.82822
rclavicle -3.61167e-014 -1.98785e-015
rhumerus -46.0342 12.8164 -96.7483
rradius 48.6391
rwrist 11.2553
rhand -3.01911 -44.5582
rfingers 7.12502
rthumb 22.6956 -73.2436
lclavicle -3.61167e-014 -1.98785e-015
lhumerus -43.919 1.60806 84.8777
lradius 36.4464
lwrist -12.5965
lhand -3.67556 -33.0163
lfingers 7.12502
lthumb 22.0655 -4.25522
rfemur -8.2902 7.80491 26.1248
rtibia 28.2815
rfoot -17.2571 -20.9907
rtoes -3.93386
lfemur -11.5707 -10.6594 -20.6847
ltibia 33.6732
lfoot -23.7995 13.4055
ltoes -38.9842
41
root 8.8273 15.248 23.9037 178.987 5.56172 -178.623
lowerback 10.5563 1.96543 1.05421
upperback -3.54161 2.80115 -0.0465169
thorax -9.67513 1.29178 -1.16806
lowerneck -4.63348 -4.81951 -9.65103
upperneck 12.6419 -7.21104 8.51448
head 5.20048 -3.67676 3.77429
rclavicle 2.83268e-015 1.98785e-016
rhumerus -45.8678 13.4494 -97.0938
rradius 48.5085
rwrist 11.3077
rhand -3.74921 -44.4496
rfingers 7.12502
rthumb 21.9948 -73.219
lclavicle 2.83268e-015 1.98785e-016
lhumerus -43.6527 2.25569 84.8506
lradius 36.1632
lwrist -13.0853
lhand -3.82896 -33.3469
lfingers 7.12502
lthumb 21.9182 -4.56847
rfemur -9.15268 7.90269 25.908
rtibia 29.196
rfoot -17.4539 -20.6487
rtoes -4.36631
lfemur -12.2141 -10.0996 -20.7583
ltibia 34.4117
lfoot -24.2027 13.3045
ltoes -38.3299
42
root 8.82365 15.2261 23.9162 179.182 5.93498 -178.683
lowerback 10.6216 2.0434 0.951163
upperback -3.59993 2.89868 0.0067876
thorax -9.78353 1.34581 -1.07599
lowerneck -4.74804 -4.68351 -9.59365
upperneck 12.6017 -6.98686 8.39015
head 5.18042 -3.56407 3.74018
rclavicle 1.54741e-014 4.96962e-015
rhumerus -45.8337 14.124 -97.3355
rradius 48.4643
rwrist 11.2532
rhand -4.34347 -44.5589
rfingers 7.12502
rthumb 21.4241 -73.3943
lclavicle 1.54741e-014 4.96962e-015
lhumerus -43.4654 2.85829 84.9796
lradius 35.9769
lwrist -13.4048
lhand -4.2729 -33.5874
lfingers 7.12502
lthumb 21.4919 -4.75966
rfemur -9.96334 7.91231 25.771
rtibia 30.1101
rfoot -17.7711 -20.4112
rtoes -4.96774
lfemur -12.8214 -9.67088 -20.7736
ltibia 35.1278
lfoot -24.4805 13.2422
ltoes -38.3584
43
root 8.82172 15.2041 23.9248 179.29 6.13112 -178.657
lowerback 10.6279 2.05021 0.958315
upperback -3.5716 2.91362 0.0672072
thorax -9.75874 1.35497 -1.0177
lowerneck -4.85639 -4.5275 -9.44633
upperneck 12.5383 -6.72645 8.16405
head 5.14302 -3.43432 3.66207
rclavicle 9.97651e-015 1.39149e-015
rhumerus -45.7238 14.7672 -97.5647
rradius 48.4234
rwrist 11.2815
rhand -4.74072 -44.7621
rfingers 7.12502
rthumb 21.0425 -73.6405
lclavicle 9.97651e-015 1.39149e-015
lhumerus -43.17 3.30052 85.1414
lradius 35.795
lwrist -13.5341
lhand -4.83605 -33.4038
lfingers 7.12502
lthumb 20.9509 -4.51531
rfemur -10.5965 7.82555 25.7655
rtibia 30.9861
rfoot -18.043 -20.1886
rtoes -5.26877
lfemur -13.3113 -9.35445 -20.6805
ltibia 35.7997
lfoot -24.8582 12.8699
ltoes -37.376
